<mxfile host="app.diagrams.net" modified="2022-04-25T02:34:49.306Z" agent="5.0 (Windows NT 10.0; Win64; x64) AppleWebKit/537.36 (KHTML, like Gecko) Chrome/99.0.4844.84 Safari/537.36 OPR/85.0.4341.75" etag="pXB4Crtz7OJY7sHM8XxH" version="17.4.6" type="github">
  <diagram id="rd-Vb_rji18YKoPcnFjZ" name="Page-1">
    <mxGraphModel dx="1378" dy="671" grid="1" gridSize="10" guides="1" tooltips="1" connect="1" arrows="1" fold="1" page="1" pageScale="1" pageWidth="827" pageHeight="1169" math="0" shadow="0">
      <root>
        <mxCell id="0" />
        <mxCell id="1" parent="0" />
        <mxCell id="2vx3cjYNqB0owFC6TWNH-1" value="congext map" style="ellipse;whiteSpace=wrap;html=1;fillColor=#fff2cc;strokeColor=#d6b656;" vertex="1" parent="1">
          <mxGeometry x="340" y="270" width="120" height="80" as="geometry" />
        </mxCell>
        <mxCell id="2vx3cjYNqB0owFC6TWNH-3" style="rounded=0;orthogonalLoop=1;jettySize=auto;html=1;" edge="1" parent="1" source="2vx3cjYNqB0owFC6TWNH-2" target="2vx3cjYNqB0owFC6TWNH-1">
          <mxGeometry relative="1" as="geometry" />
        </mxCell>
        <mxCell id="2vx3cjYNqB0owFC6TWNH-4" style="edgeStyle=none;rounded=0;orthogonalLoop=1;jettySize=auto;html=1;" edge="1" parent="1" source="2vx3cjYNqB0owFC6TWNH-2" target="2vx3cjYNqB0owFC6TWNH-5">
          <mxGeometry relative="1" as="geometry">
            <mxPoint x="330" y="100" as="targetPoint" />
          </mxGeometry>
        </mxCell>
        <mxCell id="2vx3cjYNqB0owFC6TWNH-2" value="Bounded Context" style="ellipse;whiteSpace=wrap;html=1;fillColor=#d5e8d4;strokeColor=#82b366;" vertex="1" parent="1">
          <mxGeometry x="120" y="170" width="120" height="80" as="geometry" />
        </mxCell>
        <mxCell id="2vx3cjYNqB0owFC6TWNH-5" value="Continuous Integration" style="ellipse;whiteSpace=wrap;html=1;" vertex="1" parent="1">
          <mxGeometry x="280" y="50" width="120" height="80" as="geometry" />
        </mxCell>
      </root>
    </mxGraphModel>
  </diagram>
</mxfile>
